<?xml version="1.0" standalone="no"?>
<!DOCTYPE svg PUBLIC "-//W3C//DTD SVG 20010904//EN"
 "http://www.w3.org/TR/2001/REC-SVG-20010904/DTD/svg10.dtd">
<svg version="1.0" xmlns="http://www.w3.org/2000/svg"
 width="104.000000pt" height="104.000000pt" viewBox="0 0 104.000000 104.000000"
 preserveAspectRatio="xMidYMid meet">

<g transform="translate(0.000000,104.000000) scale(0.100000,-0.100000)"
fill="#000000" stroke="none">
<path d="M393 1025 c-18 -8 -53 -28 -78 -45 -25 -17 -45 -26 -45 -21 0 6 -11
18 -25 27 -23 15 -27 15 -50 0 -51 -34 -105 -181 -105 -287 0 -43 -8 -73 -31
-124 -40 -84 -49 -176 -25 -257 20 -70 21 -65 -9 -72 -14 -4 -25 -11 -25 -16
0 -6 14 -3 31 5 24 13 34 14 45 4 11 -9 6 -20 -31 -61 -26 -29 -45 -60 -45
-73 0 -27 7 -27 121 0 42 10 85 15 94 11 17 -6 16 -9 -7 -34 -14 -15 -33 -39
-43 -54 l-17 -28 122 0 c136 0 131 -3 94 74 -17 36 -18 46 -1 46 16 0 33 -28
47 -79 l11 -41 174 0 175 0 0 29 c0 42 20 91 37 91 11 0 13 -6 8 -22 -4 -13
-9 -40 -12 -60 l-5 -38 61 0 c69 0 69 -2 13 83 l-25 37 29 22 c52 40 97 92
118 138 29 62 30 220 1 300 -14 40 -19 82 -20 155 0 94 -2 105 -37 178 -34 70
-40 77 -66 77 -16 0 -35 -7 -42 -15 -12 -14 -16 -13 -39 8 -60 56 -66 57 -221
57 -102 -1 -155 -5 -177 -15z m312 -18 c17 -9 47 -32 68 -51 30 -28 37 -42 37
-73 0 -44 67 -193 87 -193 19 0 17 11 -22 91 -22 47 -35 88 -35 114 0 37 13
65 31 65 3 0 21 -32 39 -70 28 -61 33 -87 40 -188 4 -64 13 -130 20 -147 7
-16 13 -70 14 -120 1 -114 -23 -176 -97 -240 -73 -64 -101 -69 -360 -63 -197
5 -228 8 -280 28 -128 49 -192 132 -192 250 1 36 9 89 19 118 17 50 19 52 36
37 22 -20 36 -4 20 24 -13 26 -13 126 1 193 18 84 65 180 86 176 33 -6 26 -49
-17 -106 -22 -29 -40 -61 -40 -72 0 -24 30 -44 90 -61 25 -7 47 -14 49 -16 2
-1 -8 -18 -23 -38 -61 -80 -85 -181 -67 -281 14 -73 44 -117 101 -148 82 -44
296 -74 432 -61 66 7 76 11 109 44 49 49 81 138 81 222 -1 80 -26 150 -84 236
-38 56 -52 68 -131 108 -48 25 -94 45 -101 45 -7 0 -25 14 -41 30 -32 34 -48
36 -88 16 -26 -14 -27 -14 -21 8 8 31 -27 59 -84 66 l-47 6 54 28 c29 15 72
31 95 36 61 13 186 6 221 -13z m-275 -95 l23 -19 -22 -22 c-20 -20 -28 -21
-99 -15 -42 4 -79 8 -81 10 -2 2 11 17 29 34 26 25 41 30 80 30 31 0 56 -6 70
-18z m134 -81 c15 -16 40 -31 55 -34 39 -8 76 -40 68 -60 -10 -26 -73 -31
-217 -19 -176 16 -280 43 -280 73 0 5 14 16 32 25 26 14 50 15 128 10 82 -5
101 -3 135 14 51 25 46 25 79 -9z m-11 -169 c27 -29 45 -85 40 -120 -12 -74
-126 -114 -190 -66 -15 12 -28 25 -27 30 1 5 23 21 49 37 l47 28 24 -26 c27
-29 32 -30 62 -9 37 26 24 84 -20 84 -13 0 -18 8 -18 30 0 34 10 38 33 12z
m72 -2 c-14 -16 -20 -17 -27 -8 -13 22 -9 28 19 28 26 0 26 0 8 -20z m119 -6
c3 -8 -1 -29 -10 -45 -14 -28 -14 -33 1 -55 18 -28 51 -31 77 -7 13 11 22 13
29 6 16 -16 0 -61 -30 -84 -22 -18 -35 -20 -84 -16 -69 6 -93 24 -102 76 -8
47 17 114 48 129 33 16 64 14 71 -4z m150 -160 c11 -27 7 -44 -11 -44 -9 0
-27 -10 -40 -22 -30 -28 -31 -85 -2 -122 20 -25 20 -28 4 -52 -24 -38 -58 -46
-190 -46 -114 1 -245 19 -307 44 l-28 10 20 25 c28 35 27 100 -2 130 -15 16
-33 23 -60 23 -35 0 -39 2 -36 23 2 18 10 23 46 25 34 3 49 -2 73 -22 16 -14
47 -30 69 -36 l39 -10 -17 -30 c-20 -35 -12 -53 38 -88 45 -30 105 -45 164
-39 41 4 55 11 83 41 36 39 41 66 18 90 -21 21 -19 26 14 26 33 0 86 39 96 70
8 24 21 26 29 4z m-226 -68 c15 -8 35 -23 45 -34 18 -20 18 -20 -57 -27 -78
-8 -130 -2 -156 15 -13 9 -11 14 13 35 22 20 39 25 78 25 28 0 62 -6 77 -14z
m49 -101 c-6 -16 -50 -35 -83 -35 -31 0 -121 27 -128 38 -2 4 45 7 105 7 68 0
108 -4 106 -10z m-559 -159 l50 -33 -56 -7 c-32 -4 -74 -9 -94 -12 -21 -4 -38
-2 -38 3 0 13 66 83 78 83 5 0 33 -15 60 -34z"/>
<path d="M600 947 c-18 -9 -25 -21 -25 -42 0 -25 7 -33 45 -52 57 -29 123 -30
150 -3 11 11 20 24 20 29 0 24 -41 52 -95 66 -71 18 -64 18 -95 2z m97 -22
c61 -18 81 -38 63 -60 -29 -34 -160 -4 -168 39 -7 37 28 44 105 21z"/>
<path d="M666 903 c-11 -11 -6 -23 9 -23 8 0 15 4 15 9 0 13 -16 22 -24 14z"/>
<path d="M337 904 c-8 -8 1 -24 14 -24 5 0 9 7 9 15 0 15 -12 20 -23 9z"/>
<path d="M500 826 c0 -9 5 -16 10 -16 6 0 10 4 10 9 0 6 -4 13 -10 16 -5 3
-10 -1 -10 -9z"/>
<path d="M530 824 c0 -8 5 -12 10 -9 6 3 10 10 10 16 0 5 -4 9 -10 9 -5 0 -10
-7 -10 -16z"/>
<path d="M0 62 c0 -17 72 -62 99 -62 23 0 22 1 -9 18 -19 10 -47 26 -62 36
-16 10 -28 13 -28 8z"/>
<path d="M0 16 c0 -9 5 -16 10 -16 6 0 10 4 10 9 0 6 -4 13 -10 16 -5 3 -10
-1 -10 -9z"/>
</g>
</svg>
